<svg width="269" height="57" viewBox="0 0 269 57" fill="none" xmlns="http://www.w3.org/2000/svg">
<path d="M11.9876 40.9142V33.3822H18.9361C20.2798 33.3822 21.4291 33.117 22.3838 32.5865C23.374 32.0561 24.1342 31.3135 24.6647 30.3588C25.1951 29.3686 25.4603 28.2371 25.4603 26.9641C25.4603 25.6203 25.1951 24.4711 24.6647 23.5163C24.1342 22.5262 23.374 21.7836 22.3838 21.2885C21.4291 20.7581 20.2798 20.4929 18.9361 20.4929H11.9876V12.9609H18.5117C21.8004 12.9609 24.6116 13.509 26.9455 14.6052C29.3147 15.7014 31.1181 17.2573 32.3558 19.2729C33.6288 21.2885 34.2653 23.7108 34.2653 26.5397V27.3884C34.2653 30.1466 33.6288 32.5512 32.3558 34.6021C31.1181 36.6177 29.3147 38.1736 26.9455 39.2699C24.6116 40.3661 21.8004 40.9142 18.5117 40.9142H11.9876ZM4.34947 52V12.9609H13.0484V52H4.34947ZM39.5099 52V22.9328H46.2462V35.3978H46.0871C46.0871 31.2958 46.9535 28.131 48.6862 25.9032C50.4542 23.6754 53.0003 22.5615 56.3242 22.5615H57.4381V29.8814H55.3164C52.9826 29.8814 51.1792 30.5179 49.9061 31.7909C48.6331 33.0286 47.9966 34.832 47.9966 37.2012V52H39.5099ZM63.2144 52V22.9328H71.7011V52H63.2144ZM59.3423 29.1918V22.9328H71.7011V29.1918H59.3423ZM66.503 20.0686C64.9117 20.0686 63.7271 19.6619 62.9491 18.8486C62.2066 17.9999 61.8353 16.9391 61.8353 15.666C61.8353 14.3577 62.2066 13.2968 62.9491 12.4835C63.7271 11.6348 64.9117 11.2105 66.503 11.2105C68.0942 11.2105 69.2612 11.6348 70.0038 12.4835C70.7817 13.2968 71.1707 14.3577 71.1707 15.666C71.1707 16.9391 70.7817 17.9999 70.0038 18.8486C69.2612 19.6619 68.0942 20.0686 66.503 20.0686ZM92.7581 52.3713C89.8231 52.3713 87.4538 52.0177 85.6504 51.3105C83.847 50.5679 82.5209 49.3479 81.6722 47.6505C80.8589 45.9178 80.4523 43.584 80.4523 40.649V15.0826H88.3556V40.9672C88.3556 42.3463 88.7092 43.4072 89.4164 44.1497C90.159 44.857 91.2022 45.2106 92.5459 45.2106H96.8423V52.3713H92.7581ZM76.0498 29.1388V22.9328H96.8423V29.1388H76.0498ZM102.549 52V13.2791H111.036V35.6099H109.763C109.763 32.6749 110.134 30.1996 110.877 28.184C111.62 26.1684 112.716 24.6479 114.166 23.6224C115.615 22.5615 117.437 22.0311 119.629 22.0311H120C123.218 22.0311 125.676 23.1804 127.373 25.4789C129.07 27.742 129.919 31.066 129.919 35.4508V52H121.432V34.9204C121.432 33.3291 120.955 32.0561 120 31.1013C119.081 30.1112 117.861 29.6162 116.34 29.6162C114.749 29.6162 113.458 30.1289 112.468 31.1544C111.513 32.1799 111.036 33.5413 111.036 35.2386V52H102.549ZM147.605 52L152.91 23.8876H162.192L168.345 52H161.768L155.456 24.0998H159.222L153.546 52H147.605ZM145.59 52L145.537 44.9454H151.371L151.424 52H145.59ZM141.771 52L133.974 22.9328H142.301L149.568 52H141.771ZM163.942 52L163.995 44.9454H169.83V52H163.942ZM166.329 52L172.8 22.9328H180.598L173.596 52H166.329ZM187.221 52V22.9328H195.708V52H187.221ZM183.349 29.1918V22.9328H195.708V29.1918H183.349ZM190.51 20.0686C188.919 20.0686 187.734 19.6619 186.956 18.8486C186.214 17.9999 185.842 16.9391 185.842 15.666C185.842 14.3577 186.214 13.2968 186.956 12.4835C187.734 11.6348 188.919 11.2105 190.51 11.2105C192.101 11.2105 193.268 11.6348 194.011 12.4835C194.789 13.2968 195.178 14.3577 195.178 15.666C195.178 16.9391 194.789 17.9999 194.011 18.8486C193.268 19.6619 192.101 20.0686 190.51 20.0686ZM214.59 52.9017C210.453 52.9017 207.217 52.053 204.884 50.3557C202.55 48.6583 201.312 46.2714 201.171 43.195H208.703C208.844 44.1144 209.392 44.9454 210.347 45.688C211.337 46.3952 212.805 46.7488 214.749 46.7488C216.235 46.7488 217.455 46.5013 218.409 46.0062C219.399 45.4758 219.895 44.7332 219.895 43.7784C219.895 42.9298 219.523 42.2579 218.781 41.7628C218.038 41.2324 216.712 40.8611 214.803 40.649L212.522 40.4368C209.021 40.0832 206.386 39.1107 204.618 37.5195C202.886 35.9282 202.019 33.8949 202.019 31.4196C202.019 29.3686 202.532 27.6536 203.558 26.2745C204.583 24.8954 205.997 23.8522 207.801 23.145C209.64 22.4378 211.726 22.0842 214.06 22.0842C217.808 22.0842 220.832 22.9152 223.13 24.5772C225.429 26.2038 226.631 28.573 226.737 31.6848H219.205C219.064 30.7301 218.569 29.9344 217.72 29.2979C216.871 28.626 215.616 28.2901 213.954 28.2901C212.645 28.2901 211.602 28.5376 210.824 29.0327C210.046 29.5278 209.657 30.1996 209.657 31.0483C209.657 31.8616 209.993 32.4804 210.665 32.9048C211.337 33.3291 212.433 33.6297 213.954 33.8065L216.235 34.0187C219.806 34.4077 222.582 35.3978 224.562 36.989C226.543 38.5803 227.533 40.7197 227.533 43.4072C227.533 45.352 227.002 47.0494 225.941 48.4992C224.881 49.9137 223.378 51.0099 221.433 51.7878C219.488 52.5304 217.207 52.9017 214.59 52.9017ZM233.031 52V13.2791H241.518V35.6099H240.245C240.245 32.6749 240.616 30.1996 241.359 28.184C242.101 26.1684 243.198 24.6479 244.647 23.6224C246.097 22.5615 247.918 22.0311 250.111 22.0311H250.482C253.7 22.0311 256.158 23.1804 257.855 25.4789C259.552 27.742 260.401 31.066 260.401 35.4508V52H251.914V34.9204C251.914 33.3291 251.437 32.0561 250.482 31.1013C249.563 30.1112 248.343 29.6162 246.822 29.6162C245.231 29.6162 243.94 30.1289 242.95 31.1544C241.995 32.1799 241.518 33.5413 241.518 35.2386V52H233.031Z" fill="black"/>
<circle cx="66.5396" cy="15.3917" r="4.97271" fill="#55CDFC"/>
<circle cx="190.621" cy="15.3917" r="4.97271" fill="#FF869E"/>
<path d="M129.764 52.0951V38.8345L121.239 45.4648V52.0951H129.764Z" fill="#55CDFC"/>
</svg>
